<svg width="146" height="146" viewBox="0 0 146 146" fill="none" xmlns="http://www.w3.org/2000/svg">
<path d="M86.627 64.2399C84.7412 71.7832 73.0003 67.9507 69.3503 66.9166L72.6962 53.6549C76.4678 54.7499 88.5737 56.3316 86.627 64.2399ZM67.7078 73.7299L64.0578 88.3907C68.5595 89.5466 82.4903 93.9874 84.5587 85.7141C86.7487 77.0757 72.2095 74.8249 67.7078 73.7299ZM132.009 87.7216C123.857 120.328 90.8853 140.16 58.2787 132.008C25.672 123.857 5.85858 90.8849 13.992 58.2782C15.9243 50.5286 19.3644 43.2355 24.1157 36.8156C28.867 30.3957 34.8365 24.9746 41.6832 20.8621C48.5299 16.7495 56.1197 14.026 64.0192 12.8472C71.9186 11.6683 79.9729 12.0572 87.722 13.9916C120.268 22.1432 140.1 55.1149 132.009 87.7216ZM86.4445 48.9707L89.182 38.0207L82.4903 36.4999L79.8137 47.0241C78.0495 46.5982 76.2853 46.1724 74.4603 45.8074L77.137 35.0399L70.5062 33.4582L67.7687 44.3474C66.3087 43.9824 64.8487 43.6782 63.5103 43.3132L54.3245 41.0016L52.4995 48.1191C52.4995 48.1191 57.4878 49.2749 57.3662 49.3357C60.1037 50.0049 60.5903 51.7082 60.4687 53.2291L52.9862 83.2199C52.682 84.0716 51.7087 85.1666 49.9445 84.8624C50.0053 84.9232 45.0778 83.6457 45.0778 83.6457L41.7928 91.2499L50.4312 93.4399C52.0737 93.8657 53.6553 94.2916 55.237 94.6566L52.4387 105.728L59.1303 107.432L61.8678 96.4207C63.6928 96.9074 65.457 97.3332 67.1603 97.8199L64.4228 108.709L71.1145 110.412L73.9128 99.3407C85.167 101.47 93.8053 100.618 97.3337 90.3374C100.375 82.1249 97.3337 77.2582 91.2503 74.1557C95.6303 72.9999 98.9153 70.2624 99.8278 64.3007C101.044 56.2099 94.8395 51.8907 86.4445 48.9707Z" fill="#F8F8F8"/>
</svg>
