<svg width="110" height="110" viewBox="0 0 110 110" fill="none" xmlns="http://www.w3.org/2000/svg">
<path d="M56.32 36.245H48.4596V51.7367H60.8208V58.2221H48.4596V73.7138H56.705C58.8225 73.7138 74.0942 73.9521 74.0712 55.6875C74.0483 37.4229 59.2579 36.245 56.32 36.245ZM55 0C24.6263 0 0 24.6263 0 55C0 85.3738 24.6263 110 55 110C85.3738 110 110 85.3738 110 55C110 24.6263 85.3738 0 55 0ZM57.1633 84.7046H37.2442V58.2221H30.2225V51.7367H37.2442V25.2588H54.34C58.3825 25.2588 85.1721 24.42 85.1721 55.4812C85.1675 87.0513 57.1633 84.7046 57.1633 84.7046Z" fill="#F8F8F8"/>
</svg>
