<svg width="111" height="111" viewBox="0 0 111 111" fill="none" xmlns="http://www.w3.org/2000/svg">
<path fill-rule="evenodd" clip-rule="evenodd" d="M55.3022 0.302246C24.9269 0.302246 0.302246 24.9269 0.302246 55.3022C0.302246 85.6776 24.9269 110.302 55.3022 110.302C85.6776 110.302 110.302 85.6776 110.302 55.3022C110.302 24.9269 85.6776 0.302246 55.3022 0.302246ZM58.4232 17.2576C58.0681 16.7612 57.5997 16.3566 57.0569 16.0776C56.5141 15.7985 55.9126 15.6529 55.3022 15.6529C54.6919 15.6529 54.0904 15.7985 53.5476 16.0776C53.0048 16.3566 52.5364 16.7612 52.1813 17.2576L26.5999 53.0715C26.1349 53.7224 25.8849 54.5023 25.8849 55.3022C25.8849 56.1022 26.1349 56.8821 26.5999 57.5329L52.1813 93.3469C52.5364 93.8433 53.0048 94.2478 53.5476 94.5269C54.0904 94.806 54.6919 94.9516 55.3022 94.9516C55.9126 94.9516 56.5141 94.806 57.0569 94.5269C57.5997 94.2478 58.0681 93.8433 58.4232 93.3469L84.0046 57.5329C84.4696 56.8821 84.7196 56.1022 84.7196 55.3022C84.7196 54.5023 84.4696 53.7224 84.0046 53.0715L58.4232 17.2576ZM55.3022 84.5162L38.485 60.966L54.5502 64.179C55.0515 64.2813 55.5529 64.2813 56.0543 64.179L72.1195 60.966L55.3022 84.5162ZM59.1395 55.7371L74.3143 52.7032L59.1395 31.4604V55.7371ZM51.465 55.7371V31.4604L36.2902 52.7032L51.465 55.7371Z" fill="#F8F8F8"/>
</svg>
