<svg width="110" height="110" viewBox="0 0 110 110" fill="none" xmlns="http://www.w3.org/2000/svg">
<path d="M55 0C44.122 0 33.4884 3.22569 24.4437 9.26917C15.399 15.3126 8.34947 23.9025 4.18665 33.9524C0.0238307 44.0023 -1.06535 55.061 1.05683 65.73C3.17902 76.3989 8.41726 86.199 16.1091 93.8909C23.801 101.583 33.6011 106.821 44.27 108.943C54.939 111.065 65.9977 109.976 76.0476 105.813C86.0975 101.651 94.6873 94.6011 100.731 85.5564C106.774 76.5116 110 65.878 110 55C110 40.4131 104.205 26.4236 93.8909 16.1091C83.5764 5.79462 69.5869 0 55 0ZM53.7992 16.8575H65.6425C65.8848 16.8578 66.1237 16.9141 66.3406 17.022C66.5575 17.1299 66.7466 17.2864 66.893 17.4794C67.0394 17.6724 67.1393 17.8967 67.1847 18.1346C67.2302 18.3726 67.22 18.6179 67.155 18.8512L57.8508 50.5587L66.5821 47.8912L64.7121 54.2392L55.8938 56.8058L50.1738 76.12H80.7721C81.0146 76.1213 81.2535 76.1787 81.4702 76.2877C81.6868 76.3967 81.8753 76.5544 82.0209 76.7483C82.1664 76.9423 82.2652 77.1673 82.3093 77.4058C82.3535 77.6442 82.3419 77.8897 82.2754 78.1229L79.6079 87.2896C79.4796 87.7253 79.2139 88.1079 78.8505 88.3804C78.4871 88.6529 78.0455 88.8008 77.5913 88.8021H30.8596L38.7567 62.1179L30.0208 64.7762L31.9458 58.5383L40.7 55.88L51.8008 18.3883C51.9226 17.9499 52.184 17.5632 52.5455 17.2869C52.907 17.0106 53.3488 16.8599 53.8038 16.8575" fill="#F8F8F8"/>
</svg>
